<?xml version="1.0" encoding="UTF-8"?>
<svg width="301px" height="194px" viewBox="0 0 301 194" version="1.1" xmlns="http://www.w3.org/2000/svg" xmlns:xlink="http://www.w3.org/1999/xlink">
    <!-- Generator: Sketch 43.2 (39069) - http://www.bohemiancoding.com/sketch -->
    <title>Group 3 Copy</title>
    <desc>Created with Sketch.</desc>
    <defs></defs>
    <g id="Page-2" stroke="none" stroke-width="1" fill="none" fill-rule="evenodd">
        <g id="Group-3-Copy" fill="#FFFFFF">
            <g id="Group-2">
                <g id="Group-Copy-3">
                    <path d="M194,0.144403442 L194,0 L231,0 L231,0.144403442 L246.813519,0.144403442 C246.813519,0.144403442 256.172301,13.1078642 260.449219,20.5722017 C264.726136,28.0365392 270.305707,41.1444034 270.305707,41.1444034 L0.821331689,41.1444034 C0.821331689,41.1444034 -1.02666461,15.4863133 0.821331689,6.94909094 C2.66932799,-1.5881314 9.69633169,0.144403442 9.69633169,0.144403442 L47,0.144403442 L47,0 L84,0 L84,0.144403442 L121,0.144403442 L121,0 L158,0 L158,0.144403442 L194,0.144403442 Z M47,0.144403442 L47,41 L84,41 L84,0.144403442 L47,0.144403442 Z M158,0.144403442 L121,0.144403442 L121,41 L158,41 L158,0.144403442 Z M194,0.144403442 L194,41 L231,41 L231,0.144403442 L194,0.144403442 Z" id="Combined-Shape"></path>
                </g>
                <g id="Group-Copy-4" transform="translate(135.500000, 173.000000) scale(1, -1) translate(-135.500000, -173.000000) translate(0.000000, 152.000000)">
                    <path d="M194,0.144403442 L194,0 L231,0 L231,0.144403442 L246.813519,0.144403442 C246.813519,0.144403442 256.172301,13.1078642 260.449219,20.5722017 C264.726136,28.0365392 270.305707,41.1444034 270.305707,41.1444034 L0.821331689,41.1444034 C0.821331689,41.1444034 -1.02666461,15.4863133 0.821331689,6.94909094 C2.66932799,-1.5881314 9.69633169,0.144403442 9.69633169,0.144403442 L47,0.144403442 L47,0 L84,0 L84,0.144403442 L121,0.144403442 L121,0 L158,0 L158,0.144403442 L194,0.144403442 Z M47,0.144403442 L47,41 L84,41 L84,0.144403442 L47,0.144403442 Z M158,0.144403442 L121,0.144403442 L121,41 L158,41 L158,0.144403442 Z M194,0.144403442 L194,41 L231,41 L231,0.144403442 L194,0.144403442 Z" id="Combined-Shape"></path>
                </g>
                <g id="Group" transform="translate(30.000000, 50.000000)">
                    <path d="M9.69633169,0.144403442 L246.813519,0.144403442 C246.813519,0.144403442 256.172301,13.1078642 260.449219,20.5722017 C264.726136,28.0365392 270.305707,41.1444034 270.305707,41.1444034 L0.821331689,41.1444034 C0.821331689,41.1444034 -1.02666461,15.4863133 0.821331689,6.94909094 C2.66932799,-1.5881314 9.69633169,0.144403442 9.69633169,0.144403442 Z M26,17 L26,26 L63,26 L63,17 L26,17 Z M80,17 L80,26 L117,26 L117,17 L80,17 Z M134,17 L134,26 L171,26 L171,17 L134,17 Z M189,17 L189,26 L226,26 L226,17 L189,17 Z" id="Combined-Shape"></path>
                </g>
                <g id="Group-Copy-2" transform="translate(165.500000, 121.000000) scale(1, -1) translate(-165.500000, -121.000000) translate(30.000000, 100.000000)">
                    <path d="M9.69633169,0.144403442 L246.813519,0.144403442 C246.813519,0.144403442 256.172301,13.1078642 260.449219,20.5722017 C264.726136,28.0365392 270.305707,41.1444034 270.305707,41.1444034 L0.821331689,41.1444034 C0.821331689,41.1444034 -1.02666461,15.4863133 0.821331689,6.94909094 C2.66932799,-1.5881314 9.69633169,0.144403442 9.69633169,0.144403442 Z M26,17 L26,26 L63,26 L63,17 L26,17 Z M80,17 L80,26 L117,26 L117,17 L80,17 Z M134,17 L134,26 L171,26 L171,17 L134,17 Z M189,17 L189,26 L226,26 L226,17 L189,17 Z" id="Combined-Shape"></path>
                </g>
            </g>
        </g>
    </g>
</svg>